# xmcd
#
# Track frame offsets:
#	180
#	14621
#	29073
#	40884
#	53432
#	66925
#	80757
#	93547
#	107838
#	119504
#	132595
#	145651
#	157412
#	170550
#	182805
#	194065
#	205980
#	219965
#
# Disc length: 3087
#
# Revision: 2
# Processed by: cddbd v1.5.1PL0 Copyright (c) Steve Scherf et al.
# Submitted via: CDex 1.51
# Normalized: r1:DSETVAR1,TDELIM( - )
#
DISCID=1b0c0d12
DTITLE=Various Artist - Western - Cowboy Ballads and Songs - FréMeaux and AssociéEs 1925-1939 - Disc 2
DYEAR=1995
DGENRE=Country
TTITLE0=Ken Maynard - Home On The Range
TTITLE1=Ken Maynard - The Lone Star Trail
TTITLE2=Gene Autry - Back In The Saddle Again
TTITLE3=Gene Autry - Way Out West In Texas
TTITLE4=Gene Autry - Panhandle Pete
TTITLE5=Smiley Burnette - Minnie The Moocher At The Morgue
TTITLE6=Tex Ritter - Sam Hall
TTITLE7=Tex Ritter - The Oregon Trail
TTITLE8=Tex Ritter - The Hills Of Old Wyoming
TTITLE9=Patsy Montana - I'm An Old Cowhand
TTITLE10=Sons Of The Pioneers - Billie The Kid
TTITLE11=Sons Of The Pioneers - Hold That Critter Down
TTITLE12=Sons Of The Pioneers - The Devil's Great Grandson
TTITLE13=Light Crust Doughboys - Oh Suzannah
TTITLE14=Roy Rogers - Hadie Brown
TTITLE15=Roy Rogers - When The Black Sheep Gets The Blues
TTITLE16=Roy Rogers - Listen To The Rhythm Of The Range
TTITLE17=Roy Rogers - Hi Ho Silver
EXTD=YEAR: 1995
EXTT0=
EXTT1=
EXTT2=
EXTT3=
EXTT4=
EXTT5=
EXTT6=
EXTT7=
EXTT8=
EXTT9=
EXTT10=
EXTT11=
EXTT12=
EXTT13=
EXTT14=
EXTT15=
EXTT16=
EXTT17=
PLAYORDER=
